PathFileType	4	(X/Y/Z)	Kaydara	
DataRate	CameraRate	NumFrames	NumMarkers	Units	OrigDataRate	OrigDataStartFrame	OrigNumFrames	
60.00	60.00	4	74	mm	60.00	525	227	
Frame#	Time	N_lasi			N_rasi			N_rpsi			N_lpsi			N_fneck			N_bneck			N_fhead			N_rhead			N_lhead			N_rshld			N_relbtop			N_relbext			N_relblow			N_rwrext			N_rwrtop			N_rwrlow			N_lshld			N_lelbext			N_lelbtop			N_lwrext			N_lwrtop			N_lwrlow			N_rtopleg			N_ltopleg			N_rkneefr			N_rkneebk			N_rkneeis			N_lkneefr			N_lknssbk			N_lkneeis			N_rankfr			N_rankis			N_rankbk			N_lankfr			N_lankbk			N_lankis			Z_lasi			Z_rasi			Z_rpsi			Z_lpsi			Z_fneck			Z_bneck			Z_fhead			Z_rhead			Z_lhead			Z_rshld			Z_relbtop			Z_relbext			Z_relblow			Z_rwrext			Z_rwrtop			Z_rwrlow			Z_lshld			Z_lelbext			Z_lelblow			Z_lelbtop			Z_lwrext			Z_lwrtop			Z_lwrlow			Z_rtopleg			Z_ltopleg			Z_rkneefr			Z_rkneebk			Z_rkneeis			Z_lkneefr			Z_lknssbk			Z_lkneeis			Z_rankfr			Z_rankis			Z_lankfr			Z_lankbk			Z_lankis			N_lelblow			Z_rankbk			
		X1	Y1	Z1	X2	Y2	Z2	X3	Y3	Z3	X4	Y4	Z4	X5	Y5	Z5	X6	Y6	Z6	X7	Y7	Z7	X8	Y8	Z8	X9	Y9	Z9	X10	Y10	Z10	X11	Y11	Z11	X12	Y12	Z12	X13	Y13	Z13	X14	Y14	Z14	X15	Y15	Z15	X16	Y16	Z16	X17	Y17	Z17	X18	Y18	Z18	X19	Y19	Z19	X20	Y20	Z20	X21	Y21	Z21	X22	Y22	Z22	X23	Y23	Z23	X24	Y24	Z24	X25	Y25	Z25	X26	Y26	Z26	X27	Y27	Z27	X28	Y28	Z28	X29	Y29	Z29	X30	Y30	Z30	X31	Y31	Z31	X32	Y32	Z32	X33	Y33	Z33	X34	Y34	Z34	X35	Y35	Z35	X36	Y36	Z36	X37	Y37	Z37	X38	Y38	Z38	X39	Y39	Z39	X40	Y40	Z40	X41	Y41	Z41	X42	Y42	Z42	X43	Y43	Z43	X44	Y44	Z44	X45	Y45	Z45	X46	Y46	Z46	X47	Y47	Z47	X48	Y48	Z48	X49	Y49	Z49	X50	Y50	Z50	X51	Y51	Z51	X52	Y52	Z52	X53	Y53	Z53	X54	Y54	Z54	X55	Y55	Z55	X56	Y56	Z56	X57	Y57	Z57	X58	Y58	Z58	X59	Y59	Z59	X60	Y60	Z60	X61	Y61	Z61	X62	Y62	Z62	X63	Y63	Z63	X64	Y64	Z64	X65	Y65	Z65	X66	Y66	Z66	X67	Y67	Z67	X68	Y68	Z68	X69	Y69	Z69	X70	Y70	Z70	X71	Y71	Z71	X72	Y72	Z72	X73	Y73	Z73	X74	Y74	Z74	

1	8.733	432.12971	1005.38307	-521.94927	621.75274	1005.12672	-645.09270	744.12300	1076.11206	-433.09105	526.15639	1057.77435	-330.31822	503.21903	1471.30905	-605.01022	580.75703	1548.98438	-505.49625	393.76884	1671.61896	-639.71947	571.54236	1681.58691	-628.78963	487.01118	1677.94144	-496.14662	742.17392	1447.41364	-647.65320	863.36136	1158.39241	-618.67867	807.87376	1144.00261	-556.57021	797.85370	1152.90321	-651.95938	832.75986	908.29018	-685.98831	804.75357	920.50606	-727.57462	761.83289	920.33760	-709.17580	372.36374	1460.58075	-407.57729	277.70926	1142.88002	-355.94345	332.14146	1196.79352	-288.11453	280.53452	948.19672	-236.43835	232.14380	956.73637	-253.82328	241.55985	943.47763	-300.33051	795.78346	887.45171	-538.37734	404.95010	874.73618	-411.39439	731.08414	443.97095	-471.83662	784.53178	511.10584	-387.88628	671.54411	479.97639	-377.75452	431.48163	492.79827	-668.20854	421.54846	478.34572	-560.87254	533.88115	482.79472	-617.58430	776.24611	168.11655	-343.44048	736.68945	185.28378	-283.96662	818.01506	184.12386	-293.08636	376.64455	188.06005	-739.84360	469.71687	169.41362	-722.19185	434.47796	208.54826	-776.43257	-1085.73288	1010.34424	845.30212	-1144.69170	999.76341	1077.73247	-1329.21951	1055.44815	1000.53902	-1275.94543	1057.99385	814.73419	-1071.54671	1447.61124	962.03819	-1163.37074	1526.42334	943.25737	-946.85959	1569.12109	1019.53125	-1124.45877	1642.82272	1034.64119	-1080.92484	1636.26984	909.36089	-1234.83620	1392.51083	1168.48648	-1316.16882	1100.80956	1201.39252	-1283.35922	1088.14362	1140.11635	-1236.51932	1118.99002	1224.61372	-1236.75385	853.54515	1241.41617	-1195.95184	860.90279	1261.40091	-1172.71492	872.11044	1222.39128	-1115.68619	1422.27585	747.68616	-1180.44876	1099.87251	746.25641	-1129.53957	1127.16057	673.55309	-1209.11324	1105.03876	678.00186	-1121.34277	897.42828	641.31981	-1080.20294	908.87733	641.98654	-1076.83037	903.99277	687.71523	-1259.35585	889.53278	1099.26468	-1141.73172	936.61751	763.42865	-1173.06923	420.22102	1057.59727	-1256.35170	452.72842	1081.08360	-1215.15961	445.30792	971.71982	-973.21304	460.59555	827.80434	-1024.75807	500.78930	766.29204	-1062.88139	491.72543	886.93031	-1238.18230	164.86757	1029.97993	-1281.72440	170.56358	961.71471	-1155.76454	247.88631	834.74243	-1174.79210	259.13897	760.27184	-1218.57674	278.82969	806.48735	346.50574	1161.72340	-359.05518	-1316.35651	164.54191	1024.75647 
2	8.750	424.03824	1001.88889	-538.15044	614.75243	1003.69812	-660.66467	736.12663	1074.32175	-446.92329	518.14949	1054.48990	-345.79903	491.05843	1468.57162	-617.21069	568.34045	1546.63864	-517.87415	379.65527	1667.97318	-651.06369	557.39876	1679.14459	-641.59889	474.05113	1675.23285	-508.26496	730.26451	1446.69708	-660.68741	851.09505	1157.23976	-633.72082	796.04393	1142.31125	-571.51752	785.45082	1151.69579	-666.65634	823.31696	907.12318	-700.77988	795.14496	918.84132	-742.47284	752.25815	918.13484	-724.02298	360.92648	1455.02731	-419.83330	269.18005	1134.61571	-374.37767	323.12965	1187.90321	-306.24655	279.61277	937.62283	-254.12670	231.63343	944.39774	-271.11202	240.68569	931.52153	-317.75198	789.55437	885.78056	-552.48089	396.76765	873.04855	-429.23992	726.28357	441.56639	-485.08080	779.07814	510.99468	-402.13131	666.08345	479.02187	-392.06429	425.23926	490.49622	-687.20406	412.10110	477.63878	-580.86723	525.69530	481.58329	-634.48997	775.05775	169.61443	-348.06046	735.24277	188.18861	-289.27317	816.83434	187.65221	-298.43403	375.51262	181.01360	-749.91325	467.90169	164.38862	-729.54315	433.95271	200.97685	-786.20728	-1078.62038	1011.98921	848.31833	-1133.84476	1000.49454	1082.33543	-1319.61578	1056.77757	1007.78847	-1269.41895	1059.86099	821.27823	-1062.33505	1448.85986	967.29446	-1154.22195	1527.77313	949.82681	-936.69815	1570.57770	1022.60704	-1114.24637	1644.07318	1040.59875	-1072.54440	1637.52777	914.74625	-1221.86356	1393.64105	1175.97389	-1301.43829	1101.67374	1210.53299	-1271.03821	1089.88060	1148.04077	-1221.46034	1120.23926	1232.48756	-1220.64980	854.78134	1250.11147	-1179.66553	862.22717	1269.72328	-1156.83945	873.61191	1230.87936	-1109.78210	1424.32068	753.33405	-1175.24132	1102.10121	753.40797	-1125.75035	1129.19235	679.76051	-1205.29945	1106.90102	685.68291	-1117.33398	899.39621	648.41629	-1076.20728	911.03546	648.25233	-1071.95496	906.50879	693.92014	-1249.77638	890.91484	1104.34402	-1134.36684	938.71994	767.98470	-1168.41881	421.32858	1060.30746	-1251.28311	454.46083	1084.13719	-1210.07446	447.24239	974.63722	-961.50734	462.97104	837.32521	-1014.03053	499.47189	774.89655	-1052.74963	491.89053	894.35829	-1237.09610	165.72645	1030.92789	-1280.21317	173.14758	963.40866	-1129.49112	240.13613	848.98651	-1148.30307	248.04859	774.26987	-1193.75832	266.10458	819.63547	338.45909	1154.08508	-377.79160	-1314.84573	166.83668	1026.32278 
3	8.767	415.80521	999.51263	-554.97490	607.49962	1002.84966	-676.76453	727.61978	1072.38251	-461.57822	509.10118	1051.46492	-361.88118	478.49121	1466.41205	-629.53312	555.29129	1544.79767	-530.22728	365.12051	1665.17868	-662.26433	542.81914	1677.53265	-654.15237	460.44189	1673.10684	-520.21767	717.99469	1446.59515	-673.56407	838.68248	1156.77986	-648.14766	783.86406	1141.60362	-586.29704	772.95174	1151.16463	-680.91484	813.90564	906.60400	-715.14862	785.39566	917.80609	-756.65718	742.55280	916.59645	-738.17978	348.87791	1449.71252	-432.33677	259.89088	1126.82518	-393.47843	313.11224	1179.44160	-324.96334	279.86460	927.63596	-273.45144	230.62315	932.52029	-289.52951	239.63596	920.07698	-336.43970	782.31094	884.35760	-566.92867	387.53468	872.00737	-447.31052	720.88867	439.32495	-499.17015	772.42119	511.21185	-417.25498	659.52087	477.96677	-407.51171	419.72542	487.57679	-704.65172	403.39809	476.85497	-599.34635	518.05096	479.94869	-649.88243	773.59894	171.95820	-353.58822	733.30322	191.65522	-295.42477	814.82483	191.90180	-304.33538	373.98449	175.44827	-761.14624	465.19955	160.36135	-735.97832	434.02382	193.95813	-795.88326	-1071.39412	1013.00148	851.12679	-1122.85042	1000.68001	1086.95724	-1309.88129	1058.06335	1014.64981	-1262.71935	1061.31996	827.51572	-1052.62054	1449.81552	971.63795	-1144.73381	1528.59695	955.91202	-926.34102	1571.49063	1025.35248	-1103.87474	1644.74091	1046.09100	-1063.94302	1638.44467	919.72282	-1208.78540	1394.14841	1182.76207	-1286.55609	1101.96327	1219.06662	-1258.60428	1091.71204	1155.47707	-1206.30760	1121.07697	1239.85634	-1204.02443	855.44624	1258.25096	-1163.00674	863.28949	1277.74094	-1140.50499	874.75494	1238.32542	-1103.10020	1425.95581	758.50365	-1170.37598	1104.10118	760.48294	-1121.29242	1130.68214	685.44769	-1200.72144	1108.30620	692.78000	-1112.52563	900.88821	655.06706	-1071.49452	912.65976	654.31541	-1066.76796	908.32176	700.07637	-1240.10918	891.94672	1109.21638	-1127.44774	939.52606	772.32063	-1163.72383	422.03899	1062.26944	-1246.03485	455.69378	1086.83990	-1205.20493	448.98708	976.92101	-950.68214	464.39415	847.37526	-1004.01146	496.65112	783.43346	-1044.78424	491.34686	900.77026	-1234.40002	168.01260	1033.86345	-1278.20335	174.80869	965.08850	-1102.18124	231.91631	862.90314	-1120.51895	236.30869	787.30980	-1167.83081	252.09499	832.07825	329.89819	1146.96579	-397.27642	-1313.21533	168.90642	1027.79915 
4	8.783	407.75223	998.45764	-572.24361	599.88930	1002.67952	-693.29727	718.53920	1070.96054	-476.86584	498.69541	1049.59618	-378.17799	465.90771	1464.96307	-641.28090	541.66317	1543.71460	-542.66739	350.02155	1663.29193	-673.58299	527.62203	1676.97739	-666.74835	446.38115	1671.71082	-532.26547	705.50644	1447.32971	-686.35803	826.12396	1157.17400	-662.00294	771.15463	1142.13737	-601.16478	760.42625	1151.41121	-694.78783	804.12048	906.85768	-728.62297	775.46738	917.55302	-770.13474	732.62573	915.87135	-751.62804	336.04328	1444.91272	-445.45780	250.43758	1119.65446	-413.25214	303.09021	1171.56960	-344.41017	278.23483	918.60062	-293.43704	229.24873	921.56525	-309.12073	238.29905	909.62318	-356.19576	773.59009	883.05962	-582.31808	377.76211	871.75682	-465.31605	714.49852	437.42752	-514.19468	764.30450	511.78837	-433.27976	651.88828	477.28146	-424.19167	413.21880	485.70683	-721.07071	395.72514	475.88600	-615.61382	510.57625	478.48343	-664.35913	771.47438	175.19846	-360.15160	730.57976	196.15866	-302.83039	812.20055	197.46828	-311.53872	368.83743	173.49649	-776.00098	459.71004	158.76371	-746.38496	430.61588	189.85094	-808.22945	-1063.97476	1013.43521	853.72856	-1112.04834	1000.74814	1090.55710	-1299.88998	1058.91754	1021.12541	-1255.60081	1062.21062	833.34511	-1042.94472	1450.22659	976.12267	-1135.03746	1528.95752	961.50047	-915.79918	1572.04636	1028.44727	-1093.29178	1644.90128	1051.23169	-1055.37109	1639.03732	923.90121	-1195.46562	1394.14581	1188.99170	-1271.43639	1101.65169	1227.04086	-1244.46045	1091.23260	1163.12042	-1191.08421	1121.30150	1246.74690	-1186.97128	855.82230	1265.98236	-1145.76408	863.99460	1284.75998	-1123.84377	875.29617	1245.31029	-1096.09756	1427.04727	763.38737	-1164.82574	1105.40009	766.79153	-1116.28731	1131.67763	691.12488	-1195.63972	1109.23370	699.26254	-1107.22603	901.92535	661.42662	-1066.21979	913.77342	660.46860	-1061.12106	909.58977	706.09367	-1230.32585	892.57973	1114.07516	-1120.46822	939.89632	776.28876	-1159.21623	422.49470	1064.28886	-1241.00296	456.77032	1089.39400	-1200.53825	450.19020	979.16557	-941.02890	464.76635	857.21115	-995.01877	492.70054	791.49101	-1037.83638	488.54130	906.48750	-1232.88155	168.80632	1035.31754	-1276.52321	176.80309	966.54091	-1074.38400	222.37791	876.09985	-1091.46294	224.25400	800.77019	-1140.66605	237.41098	844.08714	321.01368	1140.49606	-417.37698	-1312.10693	171.00426	1028.88206 
